<?xml version="1.0" encoding="UTF-8"?>
<svg xmlns="http://www.w3.org/2000/svg" xmlns:xlink="http://www.w3.org/1999/xlink" width="480pt" height="480pt" viewBox="0 0 480 480" version="1.1">
<g id="surface1868800">
<path style=" stroke:none;fill-rule:nonzero;fill:rgb(0%,0%,0%);fill-opacity:1;" d="M 240 12 C 114.078125 12 12 114.078125 12 240 C 12 365.921875 114.078125 468 240 468 C 365.921875 468 468 365.921875 468 240 C 468 114.078125 365.921875 12 240 12 Z M 240 12 "/>
<path style=" stroke:none;fill-rule:nonzero;fill:rgb(100%,100%,100%);fill-opacity:1;" d="M 466.703125 264.078125 C 466.738281 263.753906 466.800781 263.441406 466.828125 263.125 C 466.800781 263.441406 466.738281 263.761719 466.703125 264.078125 Z M 13.164062 263.039062 C 13.207031 263.476562 13.289062 263.902344 13.339844 264.34375 C 13.289062 263.910156 13.207031 263.472656 13.164062 263.039062 Z M 269.441406 302.824219 L 328.453125 302.824219 L 337.714844 242.890625 L 269.441406 242.890625 L 269.441406 210.132812 C 269.441406 185.238281 277.578125 163.152344 300.875 163.152344 L 338.304688 163.152344 L 338.304688 110.839844 C 331.722656 109.949219 317.820312 108 291.539062 108 C 236.664062 108 204.496094 136.984375 204.496094 203.011719 L 204.496094 242.890625 L 148.085938 242.890625 L 148.085938 302.824219 L 204.496094 302.824219 L 204.496094 464.398438 C 215.644531 466.074219 226.960938 467.21875 238.578125 467.21875 C 249.070312 467.21875 259.324219 466.265625 269.441406 464.890625 Z M 269.441406 302.824219 "/>
<path style=" stroke:none;fill-rule:nonzero;fill:rgb(0%,0%,0%);fill-opacity:1;" d="M 240 18 C 362.410156 18 462 117.589844 462 240 C 462 362.410156 362.410156 462 240 462 C 117.589844 462 18 362.410156 18 240 C 18 117.589844 117.589844 18 240 18 M 240 12 C 114.078125 12 12 114.078125 12 240 C 12 365.921875 114.078125 468 240 468 C 365.921875 468 468 365.921875 468 240 C 468 114.078125 365.921875 12 240 12 Z M 240 12 "/>
</g>
</svg>
