<?xml version="1.0" encoding="UTF-8"?>
<svg xmlns="http://www.w3.org/2000/svg" xmlns:xlink="http://www.w3.org/1999/xlink" width="160pt" height="160pt" viewBox="0 0 160 160" version="1.1">
<g id="surface2334861">
<path style=" stroke:none;fill-rule:nonzero;fill:rgb(0%,0%,0%);fill-opacity:1;" d="M 123.398438 5 L 36.601562 5 C 19.199219 5 5 19.199219 5 36.601562 L 5 123.398438 C 5 140.800781 19.199219 155 36.601562 155 L 123.398438 155 C 140.800781 155 155 140.800781 155 123.398438 L 155 36.601562 C 155 19.199219 140.800781 5 123.398438 5 Z M 123.398438 5 "/>
<path style=" stroke:none;fill-rule:nonzero;fill:rgb(0%,0%,0%);fill-opacity:1;" d="M 5 36.601562 L 5 123.398438 C 5 140.800781 19.199219 155 36.601562 155 L 123.398438 155 C 140.800781 155 155 140.800781 155 123.398438 L 155 36.601562 C 155 35.398438 155 34 154.800781 32.800781 C 129.601562 17.199219 99.800781 8 68 8 C 48 8 28.800781 11.601562 11 18.199219 C 7.199219 23.398438 5 29.800781 5 36.601562 Z M 5 36.601562 "/>
<path style=" stroke:none;fill-rule:nonzero;fill:rgb(0%,0%,0%);fill-opacity:1;" d="M 5 123.398438 C 5 140.800781 19.199219 155 36.601562 155 L 123.398438 155 C 140.800781 155 155 140.800781 155 123.398438 L 155 52.199219 C 130.601562 34.601562 100.601562 24 68 24 C 45.398438 24 24.199219 29 5 38 Z M 5 123.398438 "/>
<path style=" stroke:none;fill-rule:nonzero;fill:rgb(0%,0%,0%);fill-opacity:1;" d="M 5 123.398438 C 5 140.800781 19.199219 155 36.601562 155 L 123.398438 155 C 140.800781 155 155 140.800781 155 123.398438 L 155 72.800781 C 131.800781 52.398438 101.398438 40 68 40 C 45.199219 40 23.800781 45.800781 5 56 Z M 5 123.398438 "/>
<path style=" stroke:none;fill-rule:nonzero;fill:rgb(0%,0%,0%);fill-opacity:1;" d="M 5 123.398438 C 5 140.800781 19.199219 155 36.601562 155 L 123.398438 155 C 140.800781 155 155 140.800781 155 123.398438 L 155 95.398438 C 133.800781 71.199219 102.601562 56 68 56 C 44.800781 56 23.199219 62.800781 5 74.601562 Z M 5 123.398438 "/>
<path style=" stroke:none;fill-rule:nonzero;fill:rgb(0%,0%,0%);fill-opacity:1;" d="M 5 123.398438 C 5 140.800781 19.199219 155 36.601562 155 L 123.398438 155 C 140.800781 155 155 140.800781 155 123.398438 L 155 122.601562 C 137.800781 92.398438 105.398438 72 68 72 C 44.199219 72 22.199219 80.398438 5 94.398438 Z M 5 123.398438 "/>
<path style=" stroke:none;fill-rule:nonzero;fill:rgb(0%,0%,0%);fill-opacity:1;" d="M 5 116.398438 L 5 123.398438 C 5 140.800781 19.199219 155 36.601562 155 L 123.398438 155 C 133 155 141.398438 150.800781 147.199219 144.199219 C 135.800781 111.398438 104.601562 88 68 88 C 43 88 20.398438 99 5 116.398438 Z M 5 116.398438 "/>
<path style=" stroke:none;fill-rule:nonzero;fill:rgb(0%,0%,0%);fill-opacity:1;" d="M 36.601562 155 L 123.398438 155 C 126.800781 155 130.199219 154.398438 133.398438 153.398438 C 125.199219 124.800781 99 104 68 104 C 42.601562 104 20.601562 118 8.800781 138.601562 C 14.199219 148.398438 24.601562 155 36.601562 155 Z M 36.601562 155 "/>
<path style=" stroke:none;fill-rule:nonzero;fill:rgb(0%,0%,0%);fill-opacity:1;" d="M 36.601562 155 L 117.199219 155 C 110 134.601562 90.800781 120 68 120 C 47 120 28.800781 132.601562 20.601562 150.601562 C 25.199219 153.398438 30.800781 155 36.601562 155 Z M 36.601562 155 "/>
<path style=" stroke:none;fill-rule:nonzero;fill:rgb(0%,0%,0%);fill-opacity:1;" d="M 36.601562 155 L 99.800781 155 C 93.800781 143.601562 81.800781 136 68 136 C 54.199219 136 42.398438 143.601562 36.199219 155 C 36.398438 155 36.398438 155 36.601562 155 Z M 36.601562 155 "/>
<path style=" stroke:none;fill-rule:nonzero;fill:rgb(54.509804%,45.882353%,63.137255%);fill-opacity:1;" d="M 124 6 C 140.601562 6 154 19.398438 154 36 L 154 124 C 154 140.601562 140.601562 154 124 154 L 36 154 C 19.398438 154 6 140.601562 6 124 L 6 36 C 6 19.398438 19.398438 6 36 6 L 124 6 M 124 4 L 36 4 C 18.398438 4 4 18.398438 4 36 L 4 124 C 4 141.601562 18.398438 156 36 156 L 124 156 C 141.601562 156 156 141.601562 156 124 L 156 36 C 156 18.398438 141.601562 4 124 4 Z M 124 4 "/>
<path style=" stroke:none;fill-rule:nonzero;fill:rgb(100%,100%,100%);fill-opacity:1;" d="M 110 44 C 106.6875 44 104 46.6875 104 50 C 104 53.3125 106.6875 56 110 56 C 113.3125 56 116 53.3125 116 50 C 116 46.6875 113.3125 44 110 44 Z M 80 108 C 64.601562 108 52 95.398438 52 80 C 52 64.601562 64.601562 52 80 52 C 95.398438 52 108 64.601562 108 80 C 108 95.398438 95.398438 108 80 108 Z M 80 60 C 69 60 60 69 60 80 C 60 91 69 100 80 100 C 91 100 100 91 100 80 C 100 69 91 60 80 60 Z M 80 60 "/>
<path style=" stroke:none;fill-rule:nonzero;fill:rgb(100%,100%,100%);fill-opacity:1;" d="M 102 136 L 58 136 C 39.199219 136 24 120.800781 24 102 L 24 58 C 24 39.199219 39.199219 24 58 24 L 102 24 C 120.800781 24 136 39.199219 136 58 L 136 102 C 136 120.800781 120.800781 136 102 136 Z M 58 32 C 43.601562 32 32 43.601562 32 58 L 32 102 C 32 116.398438 43.601562 128 58 128 L 102 128 C 116.398438 128 128 116.398438 128 102 L 128 58 C 128 43.601562 116.398438 32 102 32 Z M 58 32 "/>
</g>
</svg>
