<?xml version="1.0" encoding="UTF-8"?>
<svg viewBox="0 0 640 480" xmlns="http://www.w3.org/2000/svg">
 <g fill-rule="evenodd">
  <g fill="#7f7f7f">
   <path d="m399.67 419.25c0.72098-8.496 0.72098-16.776 0-25.236-0.86301-8.532-1.477-18.144-4.607-25.236-3.168-7.199-6.373-13.859-14.328-17.208-8.172-3.275-24.732-3.995-33.84-2.304-9.18 1.584-15.516 4.824-20.664 12.061-5.256 7.271-8.568 17.315-10.332 30.96-5.184 3.132-10.584 4.104-16.633 3.456-6.119-0.89999-14.508-3.853-19.475-8.028-5.041-4.212-8.354-9.612-10.332-16.632h36.143v-15.481h-148v14.904h79.164c1.045 10.296 3.098 19.296 6.301 27.54 3.096 8.136 7.344 15.156 12.6 21.204h144z"/>
   <path d="m360.58 263.18c21.363 0 38.701 17.338 38.701 38.7s-17.338 38.7-38.701 38.7c-21.361 0-38.699-17.338-38.699-38.7s17.338-38.7 38.699-38.7"/>
   <path d="m158.61 344.84c10.44-32.076 40.32-53.784 74.017-53.784 33.695 0 63.576 21.708 73.979 53.784h-148z"/>
   <path d="m221.14 270.4c-4.571-6.372-6.012-12.204-4.608-17.784 1.404-5.725 4.789-12.456 13.213-15.48 8.496-3.06 25.128 0.756 36.683-2.304 11.268-3.096 25.164-5.76 30.996-16.056 5.76-10.44 6.805-25.452 3.42-45.864-0.18002 14.868-6.732 25.2-20.051 31.536-13.465 6.156-44.316 1.404-59.653 5.724-15.444 4.284-26.567 11.952-31.571 20.088-4.824 8.172-3.133 21.204 2.304 28.116 5.292 6.696 14.903 10.656 29.267 12.024z"/>
  </g>
  <g fill="#7f0000">
   <path d="m393.7 413.29c0.71899-8.496 0.71899-16.776 0-25.236-0.86499-8.532-1.477-18.144-4.609-25.236-3.168-7.199-6.371-13.859-14.328-17.208-8.172-3.275-24.73-3.996-33.84-2.304-9.18 1.62-15.516 4.752-20.664 12.024-5.219 7.235-8.604 17.388-10.295 30.996-5.148 3.132-10.656 4.104-16.668 3.456-6.121-0.89999-14.508-3.853-19.477-8.028-5.039-4.212-8.352-9.612-10.332-16.632h36.145v-15.517h-148v14.904h79.165c1.043 10.296 3.096 19.296 6.299 27.54 3.098 8.244 7.346 15.048 12.602 21.24 47.985 0.001007 95.974 0.001007 144 0.001007z"/>
   <path d="m350.66 258.22c21.363 0 38.701 17.338 38.701 38.7s-17.338 38.7-38.701 38.7c-21.361 0-38.699-17.338-38.699-38.7s17.338-38.7 38.699-38.7"/>
   <path d="m151.64 339.85c10.44-32.04 40.32-53.748 74.017-53.748 33.695 0 63.576 21.708 73.98 53.748h-148z"/>
   <path d="m211.17 263.44c-4.572-6.371-6.012-12.203-4.607-17.783 1.403-5.725 4.787-12.456 13.211-15.48 8.496-3.06 25.128 0.75601 36.685-2.304 11.268-3.097 25.164-5.76 30.996-16.056 5.76-10.512 6.803-25.488 3.42-45.9-0.18201 14.94-6.732 25.236-20.053 31.572-13.465 6.156-44.316 1.404-59.652 5.724-15.443 4.284-26.568 11.952-31.572 20.088-4.824 8.028-3.132 21.276 2.305 28.08 5.291 6.66 14.903 10.727 29.267 12.059z"/>
  </g>
  <path d="m133.7 38.48c44.137 0 79.957 35.82 79.957 79.956 0 44.135-35.82 79.956-79.957 79.956-44.135 0-79.955-35.82-79.955-79.956s35.82-79.956 79.955-79.956" fill="#7f7f7f"/>
  <path d="m121.62 35c44.136 0 79.956 35.82 79.956 79.956s-35.82 79.956-79.956 79.956-79.956-35.82-79.956-79.956 35.82-79.956 79.956-79.956" fill="#7f0000"/>
  <g fill="#fff">
   <path d="m120.57 48.716h3.959v11.88h-3.959v-11.88z"/>
   <path d="m153.94 56.6l-5.903 10.296 3.42 1.98 5.903-10.296-3.42-1.98z"/>
   <path d="m178.93 80.144l-10.296 5.904 1.979 3.42 10.297-5.904-1.98-3.42z"/>
   <path d="m188.79 112.98h-11.88v3.96h11.88v-3.96z"/>
   <path d="m180.91 146.38l-10.297-5.94-1.943 3.42 10.26 5.94 1.98-3.42z"/>
   <path d="m157.36 171.33l-5.903-10.26-3.42 1.98 5.903 10.26 3.42-1.98z"/>
   <path d="m124.53 181.2v-11.844h-3.959v11.844h3.959z"/>
   <path d="m91.159 173.31l5.904-10.26-3.42-1.98-5.941 10.26 3.457 1.98z"/>
   <path d="m66.174 149.8l10.26-5.94-1.979-3.42-10.261 5.94 1.98 3.42z"/>
   <path d="m56.311 115.94h11.844v-3.96h-11.844v3.96z"/>
   <path d="m64.194 83.564l10.261 5.94 1.979-3.456-10.26-5.904-1.98 3.42z"/>
   <path d="m87.702 58.58l5.94 10.296 3.421-1.98-5.94-10.26-3.421 1.944z"/>
   <path d="m119.82 136.95h-36.037c0.433-3.6 1.692-6.912 3.744-10.044 2.125-3.132 6.049-6.804 11.772-11.088 3.563-2.592 5.796-4.608 6.769-5.976 1.008-1.332 1.476-2.664 1.476-3.888 0-1.296-0.468-2.376-1.44-3.348-0.972-0.9-2.232-1.404-3.672-1.404-1.548 0-2.771 0.504-3.744 1.439-1.008 0.972-1.619 2.664-1.98 5.148-3.995-0.324-7.991-0.648-12.023-0.972 0.504-3.384 1.332-6.012 2.628-7.92 1.261-1.908 2.988-3.348 5.292-4.392 2.268-1.008 5.436-1.512 9.54-1.512 4.14 0 7.452 0.504 9.828 1.44 2.34 0.972 4.176 2.412 5.544 4.428 1.332 1.98 1.98 4.212 1.98 6.696 0 2.664-0.793 5.184-2.269 7.56-1.584 2.376-4.356 5.04-8.46 7.884-2.412 1.692-4.031 2.844-4.824 3.564-0.86301 0.648-1.8 1.476-2.916 2.592h18.793c-9.99e-4 3.241-9.99e-4 6.517-9.99e-4 9.793zm25.631-8.1h-21.852v-9.9c7.271-8.64 14.544-17.28 21.852-25.956h10.44v26.568h5.399v9.288h-5.399v8.1h-10.44v-8.1zm0-9.288v-13.644c-3.815 4.536-7.668 9.072-11.52 13.644h11.52z"/>
  </g>
 </g>
 <switch>
  <g fill="#7f0000" fill-rule="evenodd">
   <path d="m447.75 449.96l-25.381-25.344c0.86499-0.828 1.584-1.8 2.305-2.772 0.57599-1.08 1.367-2.088 1.836-3.168 0.46899-1.188 0.64801-2.16 0.936-3.348 0.17999-1.188 0.289-2.521 0.324-3.853l-0.145-369.4 0.145 1.908c-0.035004-1.368-0.14502-2.7-0.324-3.852-0.28699-1.296-0.46701-2.268-0.936-3.348-0.46899-1.188-1.26-2.196-1.836-3.168-0.72101-1.044-1.439-1.908-2.305-2.736l25.381-25.38c0.68402 0.576 1.295 1.332 1.98 2.268 0.61099 0.792 1.295 2.016 1.908 3.276 0.43201 1.296 1.115 2.916 1.367 4.572 0.14502 1.44 0.14502 2.952 0.14502 4.68-0.037018 1.692-0.037018 3.816 0 5.976v402.91c0.035004 2.124 0.035004 4.248 0 5.977 0.035004 1.656-0.072021 3.168-0.18002 4.68-0.289 1.584-0.86499 3.168-1.332 4.608-0.61298 1.224-1.297 2.304-1.908 3.24-0.685 0.89999-1.296 1.656-1.98 2.268z"/>
   <path d="m5.472 449.6l25.38-25.344c-0.9-0.828-1.62-1.8-2.304-2.771-0.684-1.08-1.476-2.089-1.836-3.168-0.432-1.188-0.792-2.16-0.936-3.349-0.252-1.188-0.36-2.52-0.324-3.852l0.144-369.4-0.144 1.908c-0.035999-1.368 0.072001-2.7 0.324-3.852 0.144-1.296 0.504-2.268 0.936-3.348 0.36-1.188 1.152-2.196 1.836-3.168 0.684-1.044 1.404-1.908 2.304-2.736l-25.38-25.38c-0.72 0.576-1.332 1.332-1.98 2.268-0.72 0.828-1.404 1.908-1.908 3.24-0.54 1.368-1.188 2.952-1.368 4.608-0.216 1.44-0.216 2.952-0.144 4.68-0.036 1.692-0.036 3.816 0 5.976v402.91c-0.036 2.124-0.036 4.248 0 5.976-0.072 1.656-0.072 3.168 0.144 4.68 0.18 1.584 0.828 3.168 1.368 4.607 0.504 1.225 1.188 2.304 1.908 3.24 0.648 0.89999 1.26 1.657 1.98 2.269z"/>
   <path d="m448.96 5.472l-25.344 25.38c-0.828-0.9-1.799-1.62-2.771-2.304-1.08-0.684-2.088-1.476-3.168-1.836-1.115-0.432-2.123-0.792-3.313-0.936-1.223-0.252-2.52-0.36-3.887-0.324l-369.4 0.144 1.908-0.144c-1.368 0.036001-2.7 0-3.852 0.288-1.296 0.144-2.268 0.468-3.348 0.972-1.188 0.36-2.196 1.152-3.168 1.836-1.044 0.684-1.908 1.404-2.736 2.304l-25.38-25.38c0.576-0.684 1.332-1.404 2.268-2.016 0.792-0.756 2.016-1.332 3.276-1.872 1.296-0.54 2.916-1.188 4.572-1.368 1.44-0.216 2.952-0.216 4.68-0.144 1.692-0.036 3.816-0.036 5.976 0h402.91c2.125-0.036 4.248-0.036 5.977 0 1.655-0.072 3.167-0.072 4.679 0.144 1.584 0.18 3.168 0.828 4.607 1.368 1.225 0.504 2.305 1.188 3.24 1.908 0.901 0.648 1.657 1.26 2.268 1.98z"/>
   <path d="m449.6 449.28l-25.344-25.381c-0.828 0.828-1.801 1.656-2.771 2.341-1.08 0.647-2.088 1.296-3.168 1.8-1.117 0.396-2.125 0.72-3.313 0.97198-1.225 0.17999-2.52 0.28799-3.889 0.324l-369.4-0.18 1.908 0.18c-1.368-0.036011-2.7-0.14499-3.852-0.324-1.296-0.25198-2.268-0.57599-3.348-0.97198-1.188-0.504-2.196-1.152-3.168-1.8-1.044-0.72098-1.908-1.44-2.736-2.305l-25.379 25.345c0.576 0.647 1.332 1.367 2.268 2.016 0.792 0.612 2.016 1.296 3.276 1.908 1.296 0.46799 2.916 1.044 4.572 1.332 1.44 0.14398 2.952 0.14398 4.68 0.14398 1.692-0.03598 3.816-0.03598 5.976 0h402.91c2.123-0.03598 4.248-0.03598 5.977 0 1.654 0 3.168 0 4.68-0.14398 1.584-0.25201 3.168-0.93701 4.607-1.368 1.225-0.64801 2.305-1.224 3.24-1.872 0.89999-0.64899 1.656-1.368 2.268-2.016z"/>
  </g>
 </switch>
</svg>
